<svg width="97" height="97" viewBox="0 0 97 97" fill="none" xmlns="http://www.w3.org/2000/svg">
<path d="M26.9018 24.5108C26.1594 26.2515 26.1927 29.117 26.2228 31.7113C26.25 34.0512 26.2746 36.1705 25.7252 37.0447C25.6456 38.7243 25.9159 41.8104 26.3268 45.2548C25.9484 42.9832 25.5125 41.2302 25.0192 41.065C24.5485 40.8285 23.8426 40.8285 23.4139 41.0357C23.3519 41.0657 23.275 41.0944 23.1912 41.1256C22.9826 41.2032 22.7316 41.2967 22.5636 41.4656C22.206 41.8249 22.1502 42.0027 22.2233 42.5501C22.3115 43.2114 22.7186 43.9796 23.734 45.4012C24.2473 46.1198 24.2991 46.3098 24.4102 47.8847C24.5494 49.8577 24.7935 50.9005 25.5792 52.878C25.8901 53.6605 26.1837 54.5636 26.2316 54.8848C26.5937 57.3125 27.2791 56.8146 27.648 56.5467C27.7319 56.4858 27.7995 56.4367 27.8431 56.4367C27.6919 55.9808 27.4921 54.2799 27.2437 52.1653L27.2057 51.8424C27.8795 56.4947 28.5719 60.6237 28.7844 61.7344C30.1963 64.0044 33.4909 64.7138 33.4909 64.7138C40.0799 66.6057 52.5521 67.3152 57.9645 65.6598C62.2003 65.6598 65.0242 61.7344 66.6715 58.8016C66.7216 58.1976 66.7503 57.5828 66.7786 56.9779C66.8833 54.7408 66.9817 52.6377 68.1288 51.7069C68.4348 49.835 68.3988 46.6161 68.3649 43.5944C68.3517 42.4169 68.3389 41.2693 68.3468 40.243C68.1288 36.0987 66.9068 34.2068 65.7302 32.7879C66.6715 30.896 66.9068 29.2405 66.6715 27.3486C66.6715 27.3486 65.7302 20.9634 61.4944 17.6526C57.2585 20.254 43.8451 22.3824 43.8451 22.3824C42.437 22.3824 39.844 21.6456 37.4268 20.9588C34.5925 20.1534 32 19.4168 31.8436 20.0175C31.6299 20.1785 31.3799 20.3152 31.0935 20.4717C30.1181 21.0049 28.7209 21.7686 26.9018 24.5108Z" fill="#E5E5E5"/>
<path d="M73.4477 37.8669C73.494 37.8662 73.5432 37.8655 73.5974 37.8655C73.8666 37.8655 74.2568 38.1056 74.6818 38.5327C75.342 39.1961 75.3453 39.2059 75.2618 40.243C75.2156 40.8167 75.0515 41.8492 74.8972 42.5374C74.7314 43.2767 74.6 44.6766 74.5761 45.958L74.5357 48.1271L73.6961 50.0555C73.2344 51.1162 72.8022 52.3175 72.7359 52.7252C72.5268 54.009 72.0553 54.6402 70.8169 55.2942C70.4082 55.51 69.8658 55.5173 69.4513 55.5229C69.1161 55.5274 68.8645 55.5308 68.8348 55.6424L69.0247 47.4502L69.26 43.1934L72.3646 37.6693C72.9755 37.8739 73.1506 37.8713 73.4477 37.8669Z" fill="#E5E5E5"/>
<path fill-rule="evenodd" clip-rule="evenodd" d="M48.748 63.7247C50.3515 63.3868 51.7109 62.9771 51.5997 62.8654C51.5486 62.814 50.6469 62.8611 49.596 62.9699C47.2821 63.2097 42.6326 63.2171 40.6987 62.9842C38.9457 62.773 38.8287 62.7725 38.954 62.9763C39.1413 63.2808 41.3524 63.8449 42.8999 63.9829C44.8049 64.1529 47.2234 64.0461 48.748 63.7247ZM50.0031 42.6572C50.2629 42.4928 50.0143 42.5762 51.1397 42.0108C52.081 41.5378 51.147 40.8283 50.669 40.8283C50.191 40.8283 49.8428 40.9174 49.2405 41.052C48.1899 41.2869 46.9184 41.5711 47.2697 41.9479C47.3312 42.2625 47.318 42.3027 47.1597 42.7851C47.0483 43.1243 46.8652 43.6822 46.5858 44.7078C45.7729 47.6922 45.9715 50.94 47.0256 51.8986C47.292 52.1409 47.639 52.2069 48.6665 52.2111C49.8234 52.2157 50.0195 52.2631 50.414 52.6335C51.4608 53.6161 51.5984 54.6448 50.8047 55.5532C50.5186 55.8807 50.3227 56.187 50.3694 56.234C50.5536 56.419 52.0135 55.9085 52.2434 55.5786C52.8379 54.7257 52.3697 53.6322 50.6537 51.8654C48.811 49.9681 48.4711 49.1802 48.4417 46.7366V44.7973C48.4417 44.7973 48.4417 44.1941 48.5511 44.1392C48.5789 44.1252 48.5926 44.0725 48.613 43.9938C48.6728 43.7631 48.7904 43.3094 49.4924 42.9567C49.6737 42.8656 49.8244 42.7703 50.0031 42.6572ZM40.3956 56.4187C39.6269 55.5964 40.2792 54.8146 41.3319 55.2966L41.7745 55.4993L41.3357 55.8205C41.0331 56.042 40.9237 56.2446 40.9832 56.4733C41.0986 56.9167 40.8386 56.8925 40.3956 56.4187ZM47.233 55.5456C47.6763 55.1356 48.2148 54.7558 48.4296 54.7017C49.2524 54.4941 50.4094 55.2682 49.8306 55.6391C49.6936 55.7268 49.1706 55.8024 48.6684 55.8071C48.1661 55.8117 47.5684 55.9229 47.3401 56.054C46.5014 56.5358 46.4461 56.2733 47.233 55.5456Z" fill="#A3A3A3"/>
<path d="M34.9023 59.9839C35.0376 59.7764 35.0536 58.9223 35.0536 58.6408C35.0536 57.346 36.1803 55.7551 38.3529 53.9823C39.2322 53.2648 40.0939 52.5176 40.2679 52.3219C40.6007 51.9474 40.8648 51.8592 40.8648 52.1225C40.8648 52.2086 40.5279 52.5221 40.1162 52.8193C39.5735 53.2109 39.3211 53.533 39.1986 53.99C39.0794 54.435 38.8335 54.7576 38.3626 55.0869C37.4499 55.7252 36.0498 57.8604 36.0498 58.6141C36.0498 59.3677 36.0498 59.4935 36.079 59.5109L34.9023 59.9839Z" fill="#A3A3A3"/>
<path d="M60.7879 64.0042L60.7058 60.9548C60.7058 57.818 60.6374 57.6488 59.2248 57.2914C58.8066 57.1855 58.4644 57.0047 58.4644 56.8895C58.4644 56.7743 58.8658 56.228 59.3564 55.6755C59.9899 54.9619 60.3803 54.3153 60.7039 53.4436C60.9544 52.7686 61.4439 51.7283 61.7915 51.1318C62.2432 50.3566 62.5246 49.5713 62.7779 48.3792C63.0822 46.9471 63.2601 46.513 64.036 45.3093C64.533 44.5382 64.9397 43.8195 64.9397 43.7121C64.9397 43.6048 64.8229 43.1217 64.6801 42.6386C64.4697 41.9265 64.0742 41.4434 63.8471 41.5378L60.5526 38.9364L61.7519 37.9728C62.9573 37.1501 63.9435 36.0642 63.9435 35.5595C63.9435 35.0439 63.2727 33.0855 62.705 31.9433C62.4541 31.4386 61.8536 30.5 61.3706 29.8576L60.4924 28.6897L60.313 26.5205C60.1131 24.1031 59.8294 22.9463 59.2123 22.0325C58.684 21.2501 58.6888 20.8546 59.2362 20.0608C59.478 19.7101 59.6402 19.3872 59.5965 19.3433C59.5965 19.3433 61.2586 17.8889 61.7292 17.8889C61.4939 19.0714 62.3675 19.7128 63.3765 20.7268C68.7889 26.166 67.1417 31.6053 68.3183 43.7121C68.4444 46.3695 68.3183 50.5243 68.3183 50.5243C68.3183 51.2671 68.1389 51.3834 67.9202 51.5252C67.5817 51.7446 67.1492 52.0251 67.1417 54.7811C67.1368 56.5681 66.7732 57.4182 66.4981 58.0612C66.3495 58.4088 66.2266 58.696 66.2004 59.0379L60.7879 64.0042Z" fill="#A3A3A3"/>
<path d="M44.8273 91.7129C38.0197 91.5699 33.5654 90.3313 31.3316 88.7434C30.592 88.2177 28.0704 85.1643 28.2167 83.8307C27.5676 78.4882 27.9648 75.9992 28.5378 70.8208C28.4519 69.949 28.7842 65.0933 28.3316 63.1202C27.5212 59.5873 27.2049 55.0863 27.0008 52.6336C26.9435 51.9453 26.7529 49.9609 26.5772 48.2238C26.2968 45.4507 26.1974 44.9357 25.762 44.0007C25.1741 42.7381 24.7243 40.5192 24.1805 36.1983C23.2721 28.9802 23.2745 27.5347 24.2026 22.6988C24.688 20.1701 25.2004 18.7897 26.107 17.5685C26.8549 16.5611 27.0416 16.0253 26.7625 15.6872C26.6081 15.5003 26.6694 15.3942 27.069 15.157C27.3437 14.994 27.6586 14.6418 27.7688 14.3745C27.879 14.1072 28.4479 13.3894 29.033 12.7794C29.6181 12.1695 30.1644 11.5015 30.2469 11.295C30.3294 11.0885 30.4992 10.9196 30.6243 10.9196C31.0284 10.9196 31.4483 10.2958 31.3593 9.82789C31.2944 9.48654 31.362 9.3527 31.6709 9.21126C31.8879 9.11191 32.0654 8.97829 32.0654 8.91433C32.0654 8.77137 34.4453 7.34791 35.2474 7.0111C35.5686 6.87624 36.9576 6.53641 38.3341 6.25591C39.7106 5.97541 41.3849 5.55817 42.0548 5.32871C43.7549 4.74636 44.6738 4.67677 46.5934 4.985C47.5066 5.13162 49.113 5.35963 50.1631 5.49167C51.2133 5.62371 52.5208 5.8883 53.0687 6.07966C53.6166 6.27101 54.8056 6.61676 55.7109 6.84799C57.5348 7.31387 57.9665 7.50495 59.1003 8.34837C60.6158 9.47575 61.1441 9.96021 61.5803 10.6226C61.9766 11.2244 62.0331 11.5025 62.1295 13.3292C62.1918 14.5085 62.3349 15.5708 62.4695 15.8538C62.6928 16.3232 62.7574 16.3464 64.1116 16.4434C66.1586 16.5901 66.478 16.779 68.3288 18.9368C70.0311 20.9216 70.485 21.6698 71.0567 23.4338C72.0952 26.6377 72.6334 30.1248 72.8388 34.9802L72.9567 37.7667L71.7923 39.5687C70.2532 41.9509 70.1393 42.1939 69.6709 44.0963C69.2736 45.71 69.271 45.7773 69.3493 52.307C69.3927 55.928 69.3635 60.0427 69.2844 61.4507L69.7042 67.0313L70.1006 76.7704C70.3164 82.0726 67.7543 85.4673 63.7461 87.7598C57.5544 91.301 52.2734 91.8693 44.8273 91.7129ZM59.3227 64.6694C61.1961 63.8584 65.1671 60.1697 66.1805 58.2992C66.6507 57.4312 66.6748 57.2877 66.6987 55.2079L66.7238 53.0268L67.3141 52.121L67.9045 51.2153L67.9581 46.3523C68.0071 41.9095 67.9867 41.4614 67.7212 41.1666C67.4732 40.8912 67.4307 40.4969 67.4307 38.4727C67.4307 35.741 67.3148 35.3803 65.9114 33.7434L65.0942 32.7903L65.5007 31.9843C66.529 29.9448 66.6311 28.4162 65.9242 25.6387C65.3322 23.3126 64.9474 22.6804 62.9948 20.8265C61.2501 19.1699 61.2194 19.1279 61.4236 18.6775C61.7031 18.061 61.5405 17.9528 60.9031 18.3313C59.7733 19.0021 59.3798 19.1362 56.4378 19.8534C54.7675 20.2607 52.2801 20.9665 50.9103 21.4221C47.9605 22.403 47.2326 22.5567 44.601 22.7535C43.0768 22.8675 42.2184 22.8452 40.9482 22.6586C38.8441 22.3495 35.9654 21.7088 33.8707 21.0835C31.9234 20.5021 31.5644 20.4881 30.6024 20.9561C29.0127 21.7295 27.3279 24.0315 26.6659 26.3347C26.2457 27.7967 26.3877 32.5613 26.8987 34.147L27.2593 35.266L26.6738 36.0369C26.0369 36.8754 25.9877 37.2008 26.2456 38.8679C26.3308 39.4186 26.4817 41.4083 26.5808 43.2896C26.7858 47.1784 26.997 49.4551 27.3317 51.3821C27.4592 52.1163 27.6116 53.2801 27.6705 53.9684C27.7293 54.6567 27.9204 55.8921 28.0951 56.7137C28.2698 57.5354 28.6484 58.5029 28.7472 58.9553C29.0361 60.2782 29.138 61.5071 29.3934 61.9867C29.4975 62.1822 30.0013 63.0035 30.3407 63.1773C31.3869 63.7132 33.3554 64.693 33.7959 64.5819C34.2374 64.4706 34.1921 64.6522 34.5457 61.577C34.7843 59.5016 34.8951 59.3707 36.4963 59.2718C37.4547 59.2127 38.3936 58.9869 40.0901 58.4077L42.3865 57.6237L43.6008 58.2266C44.7079 58.7764 44.8721 58.8141 45.4632 58.6542C45.8196 58.5577 46.5135 58.1773 47.005 57.8087C47.4965 57.4402 47.9893 57.1387 48.1002 57.1387C48.2111 57.1387 48.8004 57.2934 49.4098 57.4826C51.1649 58.0274 52.8928 58.3064 54.5361 58.3103C56.1203 58.3141 56.8942 58.5403 57.9788 59.3164C58.5742 59.7425 58.6008 60.2595 58.1328 62.3112C57.7977 63.7798 57.7201 64.6774 57.9114 64.8697C58.1011 65.0603 58.5754 64.993 59.3227 64.6694ZM40.2846 55.9722C40.1445 55.5285 40.306 55.3032 40.7643 55.3032C41.3463 55.3032 41.3974 55.4836 40.937 55.9123C40.4269 56.3875 40.4161 56.3884 40.2846 55.9722ZM47.5617 55.486C47.6684 55.357 48.0019 55.1481 48.3029 55.0217C48.7528 54.8327 48.9291 54.8298 49.2944 55.0058C50.0311 55.3607 49.8113 55.5491 48.558 55.637C47.5487 55.7077 47.3973 55.6848 47.5617 55.486ZM32.9574 45.9964C32.005 45.6544 31.2353 45.1944 31.2353 44.9671C31.2353 44.7361 32.0589 43.8054 32.4493 43.5955C32.6407 43.4926 33.1422 43.3169 33.5637 43.2051L34.3302 43.002L34.3185 43.8267C34.3083 44.5544 34.3707 44.7087 34.8491 45.1385C35.4673 45.6938 36.2656 45.7811 37.0409 45.3782C37.5814 45.0973 37.9657 44.1697 37.8062 43.5311C37.7501 43.3065 37.7347 43.1228 37.7718 43.1228C37.8089 43.1228 38.3207 43.3491 38.909 43.6258C39.4973 43.9025 40.4209 44.1874 40.9615 44.259L41.9445 44.3891L41.4464 44.6503C41.1724 44.794 40.4767 44.9589 39.9004 45.0168C39.3241 45.0747 38.2781 45.3577 37.5759 45.6456C35.9363 46.3181 34.2168 46.4487 32.9574 45.9964ZM50.626 44.7256C49.5565 44.6241 48.6003 44.4586 48.5012 44.3579C48.2392 44.0917 48.591 43.4078 49.1652 43.0669C49.8052 42.687 49.8584 42.7141 49.5458 43.2615C49.3974 43.5214 49.3238 43.8593 49.3823 44.0124C49.5744 44.5155 50.2745 44.3297 51.1579 43.5412C52.1286 42.6748 52.9863 42.1992 53.8833 42.0301L54.5163 41.9108L54.2279 42.3532C53.8705 42.9013 53.9856 43.8453 54.4734 44.3672C54.6597 44.5664 54.8121 44.7809 54.8121 44.8438C54.8121 45 52.969 44.948 50.626 44.7256ZM57.4628 44.1349C57.696 43.6969 57.68 42.7345 57.4354 42.4887C57.114 42.1657 57.7161 42.2384 58.441 42.61C59.5761 43.192 59.5811 43.3457 58.4839 43.9334C57.3398 44.5462 57.2325 44.5674 57.4628 44.1349ZM35.9204 43.9313C36.0066 43.6715 36.3781 43.626 36.3911 43.8736C36.3959 43.9654 36.2752 44.0664 36.1229 44.0981C35.9498 44.1342 35.8739 44.0716 35.9204 43.9313ZM29.1598 43.3893C28.8859 43.2678 28.5191 43.0076 28.3448 42.8112C28.0834 42.5165 28.0603 42.3825 28.213 42.0457C28.4313 41.5644 29.9417 40.3386 31.1376 39.6723C31.922 39.2353 32.113 39.2019 33.8088 39.2044C34.8167 39.2059 36.3048 39.3339 37.1295 39.4902C37.9513 39.646 39.0458 39.8182 39.5616 39.8729C40.7123 39.9949 41.058 40.3187 41.0034 41.2233C40.9819 41.5797 41.0232 42.0449 41.0952 42.2569L41.2261 42.6425L40.4126 42.2282C39.3219 41.6728 38.0669 41.4716 35.3861 41.4224C32.772 41.3745 32.0777 41.5746 31.4013 42.5708C31.173 42.907 30.8875 43.2814 30.7668 43.4027C30.4899 43.6811 29.8048 43.6754 29.1598 43.3893ZM55.5055 43.1974C55.5806 42.835 55.8753 42.8128 55.9427 43.1645C55.9777 43.3471 55.8963 43.4565 55.7253 43.4565C55.5658 43.4565 55.4742 43.3486 55.5055 43.1974ZM51.1511 41.7999C51.4985 41.5317 51.5259 41.4467 51.3384 41.2197C50.9834 40.7898 49.7428 40.8934 48.4198 41.4634L47.2575 41.9642L46.884 41.533C46.3673 40.9367 46.4091 40.5357 47.0141 40.2839C47.2912 40.1686 47.6461 39.9119 47.8028 39.7135C48.2835 39.105 48.4729 39.0775 49.5458 39.4607L50.5782 39.8294L52.2818 39.0564C56.3958 37.1895 59.4937 37.4809 62.2286 39.992C62.8546 40.5668 63.5501 41.1572 63.7742 41.3039L64.1817 41.5708L63.7722 41.7914C63.5319 41.921 62.7801 42.0175 61.9515 42.0252L60.5402 42.0382L59.129 41.1712C58.3527 40.6944 57.5241 40.2575 57.2875 40.2004C57.0508 40.1432 56.405 40.2143 55.8522 40.3582C55.2994 40.5022 54.352 40.6199 53.7468 40.6199C52.7252 40.6199 52.6326 40.6507 52.4513 41.0505C52.344 41.2872 51.975 41.6251 51.6313 41.8013C50.8401 42.207 50.6249 42.2064 51.1511 41.7999ZM48.9179 63.894C51.7714 63.2955 53.4838 62.5374 53.4838 61.8725C53.4838 61.5476 52.3542 61.398 51.6989 61.6362C51.3437 61.7652 50.3723 61.8318 49.1109 61.8134C48.0002 61.7973 45.6346 61.8167 43.8538 61.8565C42.0731 61.8963 40.0721 61.9398 39.4072 61.9532C37.9777 61.9819 37.6867 62.271 38.4357 62.9184C39.848 64.1393 45.3201 64.6486 48.9179 63.894ZM72.0796 51.4961C72.0796 51.3987 72.5002 50.7325 73.0142 50.0157C73.9619 48.694 74.0801 48.8689 73.2532 50.3696C72.8167 51.1619 72.0796 51.8694 72.0796 51.4961ZM70.0927 50.3705C70.0889 50.0156 70.2397 49.7126 70.5864 49.3789C71.0815 48.9021 71.4128 48.0767 71.4145 47.315C71.4153 46.9636 71.3591 46.9301 70.9174 47.0189C70.4975 47.1032 70.4193 47.0669 70.4193 46.7872C70.4193 46.6047 70.3298 46.3114 70.2205 46.1355C70.0634 45.8827 70.0738 45.6472 70.27 45.0122C70.6518 43.7769 71.407 43.8239 71.4129 45.0833C71.4154 45.6153 71.8891 46.293 72.2584 46.293C72.3567 46.293 72.6619 46.0672 72.9365 45.7913C73.7917 44.9319 74.0018 45.5773 73.3962 47.2037C73.1112 47.9693 72.8773 48.2611 72.0264 48.9122C71.4621 49.344 70.9473 49.7828 70.8825 49.8873C70.8176 49.9918 70.6146 50.2583 70.4314 50.4795L70.0982 50.8816L70.0927 50.3705ZM23.6901 43.7531C23.4166 43.3606 23.3479 42.9534 23.5562 42.9596C23.9003 42.9699 24.4361 43.5746 24.3352 43.8388C24.1886 44.2227 24 44.1976 23.6901 43.7531ZM74.1827 44.0127C74.1218 43.9515 74.072 43.3291 74.072 42.6297C74.072 41.6906 73.9858 41.188 73.7425 40.7083C73.5612 40.351 73.4306 40.0409 73.4522 40.0192C73.4739 39.9974 73.6829 39.9314 73.9168 39.8724C74.2089 39.7987 74.463 39.8635 74.7282 40.0793L75.1143 40.3935L74.75 42.2123C74.3611 44.1541 74.3521 44.1829 74.1827 44.0127Z" fill="#5D5D5D"/>
</svg>
