<svg width="101" height="104" viewBox="0 0 101 104" fill="none" xmlns="http://www.w3.org/2000/svg">
<g clip-path="url(#clip0_2_220)">
<path d="M99.107 1.5H1.5V101.533H99.107V1.5Z" stroke="#1E1E1E" stroke-width="3"/>
<path d="M79.93 54.455C76.7053 59.3523 72.51 66.4517 67.344 75.753C66.376 78.173 65.4346 80.5933 64.52 83.014C63.7673 84.6807 62.7723 85.514 61.535 85.514C60.0476 85.3757 58.5984 84.9645 57.26 84.301C55.1626 83.4403 54.114 82.5797 54.114 81.719C54.3127 80.8301 54.6679 79.9836 55.163 79.219C59.163 70.7087 62.2981 61.818 64.521 52.681C67.479 41.5477 68.743 33.05 68.313 27.188C68.2056 24.8213 67.668 23.638 66.7 23.638C66.0006 23.638 64.952 24.3103 63.554 25.655C50 38.8857 38.275 56.58 28.379 78.738C27.1416 81.4807 25.6896 82.852 24.023 82.852C22.8396 82.852 20.8766 82.1797 18.134 80.835C17.058 80.3517 16.493 79.8947 16.439 79.464C16.6485 78.6785 16.9464 77.9194 17.327 77.201C21.0241 68.77 24.1244 60.0896 26.605 51.224C29.885 39.8787 31.7403 31.033 32.171 24.687C32.2783 22.7537 32.2246 21.787 32.01 21.787C31.956 21.787 31.203 22.513 29.751 23.965C28.299 25.417 26.282 27.298 23.7 29.608C23.4945 29.8324 23.2453 30.0126 22.9678 30.1374C22.6903 30.2622 22.3902 30.3291 22.086 30.334C21.3333 30.334 20.957 30.0383 20.957 29.447C21.0286 28.877 21.3178 28.3568 21.764 27.995C24.0766 25.0363 27.1153 21.352 30.88 16.942C31.1726 16.5461 31.5477 16.2185 31.9793 15.9818C32.4109 15.7451 32.8888 15.6049 33.38 15.571C34.6706 15.571 35.8 16.5123 36.768 18.395C41.1246 19.6857 43.1683 21.6757 42.899 24.365C42.3076 30.281 39.269 40.957 33.783 56.393C38.2637 48.1449 43.5323 40.3499 49.515 33.117C56.3996 24.539 61.5093 19.47 64.844 17.91C65.9495 17.3234 67.1517 16.941 68.393 16.781C69.0923 16.781 70.2216 17.3727 71.781 18.556C76.245 20.1153 78.449 22.697 78.393 26.301C78.393 30.0657 77.4786 36.1163 75.65 44.453C74.2006 51.3363 72.8573 56.6857 71.62 60.501C73.18 58.511 75.17 55.9293 77.59 52.756C77.7304 52.5329 77.9195 52.3444 78.1431 52.2047C78.3666 52.0649 78.6189 51.9775 78.881 51.949C79.6876 51.949 80.091 52.46 80.091 53.482C80.0905 53.8129 80.0361 54.1416 79.93 54.455Z" fill="#1E1E1E" stroke="#1E1E1E"/>
</g>
<defs>
<clipPath id="clip0_2_220">
<rect width="100.607" height="103.033" fill="white"/>
</clipPath>
</defs>
</svg>
