<svg width="38" height="65" viewBox="0 0 38 65" fill="none" xmlns="http://www.w3.org/2000/svg">
<path d="M0.500008 20.4996C0.50002 14.0025 2.82516 9.13776 6.28012 5.88742C9.74223 2.63037 14.3673 0.967914 19.0033 0.937438C23.6391 0.906963 28.2613 2.50837 31.7207 5.74771C35.173 8.98039 37.5 13.8749 37.5 20.4996L37.5 46C37.5 52.2399 35.1806 56.8178 31.7337 59.8262C28.277 62.8432 23.6518 64.3108 19.0066 64.2497C14.3612 64.1886 9.73049 62.5988 6.26814 59.5466C2.81517 56.5026 0.500003 51.9839 0.500015 46L0.500008 20.4996Z" stroke="#E5E5E5"/>
<path d="M20.0001 41.5C20.0001 43.9853 20.0001 46 18.5001 46C17.0001 46 17.0001 43.9853 17.0001 41.5C17.0001 39.0147 17.0001 37 18.5001 37C20.0001 37 20.0001 39.0147 20.0001 41.5Z" fill="#D9D9D9"/>
</svg>
